<svg version="1.2" xmlns="http://www.w3.org/2000/svg" viewBox="0 0 512 512" width="512" height="512">
	<style>
		.s0 { opacity: .02;fill: #000000 } 
		.s1 { fill: #000000 } 
	</style>
	<path class="s0" d="m0 0h512v512h-512z"/>
	<g>
		<path class="s1" d="m156.76 79.5l-21.91 58.54-58.45 21.87 58.52 21.9 21.84 58.37 21.84-58.38 58.48-21.89-58.41-21.85c0 0-21.91-58.56-21.91-58.56zm200.08 0l-21.91 58.54-58.45 21.87 58.51 21.9 21.85 58.36 21.84-58.37 58.48-21.89-58.41-21.85zm-338.52 67.14c11.04 82.05 38.61 154.35 76.46 208.13l18.67 23.75c11.36 13.22 22.84 24.94 35.56 34.92l34.68 22.35c14.4 7.16 29.94 11.87 45.34 14.67h55.13c15.32-2.78 30.14-8.25 44.45-15.37l37.35-23.74c11.96-9.67 23.06-20.95 33.79-33.53l18.67-23.74c37.16-53.27 64.38-124.49 75.57-205.34-15.07 38.65-40.1 72.62-72.02 99.18l-34.67 23.74c-9.04 5.29-17.82 10.49-27.56 14.67l-45.35 14.67c-10.92 2.44-22.36 3.86-33.78 4.89l-47.13 0.69c-12.51-1.09-24.54-3.51-36.45-6.28l-43.57-13.97c-10.03-4.31-19.16-9.19-28.45-14.67l-32.9-23.05c-32.86-27.11-58.72-62.13-73.79-101.97z"/>
	</g>
</svg>