<svg version="1.2" xmlns="http://www.w3.org/2000/svg" viewBox="0 0 256 256" width="256" height="256">
	<style>
		.s0 { fill: #ffffff } 
	</style>
	<g id="Page-1">
		<g id="Dribbble-Light-Preview">
			<g id="icons">
				<path id="emoji_happy_circle-[#546]" fill-rule="evenodd" class="s0" d="m128 256c-70.78 0-128-57.22-128-128 0-70.78 57.22-128 128-128 70.78 0 128 57.22 128 128 0 70.78-57.22 128-128 128zm102.4-128c0-56.63-45.77-102.4-102.4-102.4-56.63 0-102.4 45.77-102.4 102.4 0 56.63 45.77 102.4 102.4 102.4 56.63 0 102.4-45.77 102.4-102.4zm-166.4 18.11h128c0 89.6-128 89.6-128 0zm140.8-51.2v25.6c0 7.07-5.73 12.8-12.8 12.8h-25.6c-7.04 0-12.8-5.76-12.8-12.8v-25.6c0-7.06 5.73-12.8 12.8-12.8h25.6c7.07 0 12.8 5.74 12.8 12.8zm-140.8 38.4c-7.04 0-12.8-5.76-12.8-12.8v-25.6c0-7.06 5.73-12.8 12.8-12.8h25.6c7.07 0 12.8 5.74 12.8 12.8v25.6c0 7.07-5.73 12.8-12.8 12.8z"/>
			</g>
		</g>
	</g>
</svg>