<svg version="1.2" xmlns="http://www.w3.org/2000/svg" viewBox="0 0 256 256" width="256" height="256">
	<style>
		.s0 { fill: #ffffff } 
	</style>
	<g id="Page-1">
		<g id="Dribbble-Light-Preview">
			<g id="icons">
				<path id="emoji_happy_circle-[#537]" fill-rule="evenodd" class="s0" d="m128 256c-70.78 0-128-57.22-128-128 0-70.78 57.22-128 128-128 70.78 0 128 57.22 128 128 0 70.78-57.22 128-128 128zm102.4-128c0-56.63-45.77-102.4-102.4-102.4-56.63 0-102.4 45.77-102.4 102.4 0 56.63 45.77 102.4 102.4 102.4 56.63 0 102.4-45.77 102.4-102.4zm-153.6 0c-14.16 0-25.6-11.44-25.6-25.6 0-14.16 11.44-25.6 25.6-25.6 14.16 0 25.6 11.44 25.6 25.6 0 14.16-11.44 25.6-25.6 25.6zm102.4 0c-14.16 0-25.6-11.44-25.6-25.6 0-14.16 11.44-25.6 25.6-25.6 14.16 0 25.6 11.44 25.6 25.6 0 14.16-11.44 25.6-25.6 25.6zm11.4 27.6c-12.97 65.6-112.23 65.6-125.2 0-1.53-7.73 4.9-14.8 12.78-14.8 6.15 0 11.16 4.44 12.6 10.42 8.89 37.31 65.55 37.31 74.44 0 1.44-5.98 6.45-10.42 12.6-10.42 7.88 0 14.31 7.07 12.78 14.8z"/>
			</g>
		</g>
	</g>
</svg>