<svg version="1.2" xmlns="http://www.w3.org/2000/svg" viewBox="0 0 512 512" width="512" height="512">
	<style>
		.s0 { opacity: .02;fill: #000000 } 
		.s1 { fill: #ffffff } 
	</style>
	<path class="s0" d="m0 0h512v512h-512z"/>
	<path id="Arrow Up" class="s1" d="m449.37 325v-162.97h57.63l-140.58-146.87-140.58 146.87h57.62v162.97c0 0 165.91 0 165.91 0z"/>
	<g>
		<path id="Layer copy 2" class="s1" d="m194.53 19.66l-13.06 42.59 27.62 6.56 19.5-17.5c0 0-34.06-31.65-34.06-31.65zm125.94 0.06l-32.63 30.34 20.66 19.5 25.63-5.41c0 0-13.66-44.43-13.66-44.43zm-64.94 59.4q-5.37 0.09-10.73 0.5-5.36 0.42-10.69 1.16-5.32 0.75-10.59 1.82-5.27 1.07-10.46 2.46c-93.08 24.94-148.47 120.89-123.53 213.97 7.61 28.38 21.83 53.25 40.53 73.41q0.27 0.37 0.53 0.75l0.1-0.06c42.67 45.49 108.4 66.65 172.78 49.4 93.08-24.94 148.47-120.85 123.53-213.94-20.26-75.63-87.4-126.35-161.78-129.34q-4.83-0.2-9.69-0.13zm-170.06 3.44l9.97 43.44 27.22-8.16 8.12-24.87c0 0-45.31-10.41-45.31-10.41zm344.03 0.19l-43.47 9.97 8.16 27.22 24.87 8.12zm-170.72 15q2.9 0.01 5.79 0.13c66.47 2.61 126.23 47.86 144.37 115.56 22.33 83.32-26.96 168.74-110.28 191.06-57.29 15.35-115.54-3.16-153.63-43.31l-0.03-0.03c-7.72-11.21-13.96-23.47-18.4-36.31-24.48-70.79 10.59-153.7 82.93-178.5 60.95-20.9 132.18 9.02 153.22 70.75 17.63 51.72-8.1 112.28-60.93 130.12-44.03 14.87-95.41-6.86-110.35-51.37-12.36-36.86 6.04-79.96 43.63-92.44 30.91-10.27 66.95 5.03 77.22 36.19 8.03 24.37-3.39 52.73-27.13 62.43 10.77-10.38 15.78-26.18 11.66-41.56-5.28-19.68-23.82-32.46-43.44-31.31-2.8 0.16-5.66 0.59-8.47 1.34-22.49 6.03-35.96 29.41-29.94 51.91q0.26 0.95 0.56 1.9 0.3 0.94 0.65 1.87 0.34 0.92 0.73 1.83 0.38 0.91 0.81 1.8 0.03 0.08 0.07 0.16 0.1 0.22 0.21 0.44c11.98 26.71 41.88 39.62 69.88 30.5 36.25-11.82 53.64-52.3 42.16-87.16-13.72-41.61-60.59-61.47-100.88-48.09-47.95 15.92-70.97 69.85-55.44 116.15 18.43 54.93 80.65 81.14 134.07 63.1 63.15-21.33 93.47-92.67 72.62-153.85-19.96-58.57-77.88-92.29-136.62-89.93q-5.15 0.2-10.27 0.77-5.11 0.58-10.18 1.52-5.06 0.95-10.04 2.26-4.98 1.31-9.86 2.98c-56.14 19.25-92.42 68.7-101.22 123.59 0.61-68.35 46.36-130.55 115.66-149.12 13.67-3.67 27.38-5.41 40.87-5.38zm-191.9 80.19l-44.44 13.63 30.34 32.65 19.5-20.66c0 0-5.4-25.62-5.4-25.62zm382.91 0.81l-6.56 27.63 17.5 19.5 31.68-34.07c0 0-42.62-13.06-42.62-13.06zm-193.16 69c10.23 0.25 19.36 7.11 22.16 17.57 3.41 12.74-3.98 25.58-16.72 29-11.15 2.98-22.39-2.31-27.31-12.23q-0.18-0.42-0.35-0.85-0.17-0.43-0.33-0.87-0.16-0.43-0.31-0.87-0.15-0.43-0.29-0.87l-0.13 0.03q-0.04-0.14-0.08-0.27-0.04-0.14-0.08-0.28-0.04-0.13-0.08-0.27-0.04-0.14-0.07-0.28c-3.41-12.74 4.01-25.58 16.75-29q0.58-0.15 1.18-0.28 0.59-0.13 1.19-0.22 0.6-0.1 1.2-0.17 0.6-0.07 1.21-0.11 1.04-0.06 2.06-0.03zm-202.6 35.72l-31.65 34.03 42.59 13.1 6.56-27.66c0 0-17.5-19.47-17.5-19.47zm407.94 1.66l-19.5 20.65 5.41 25.63 44.44-13.66c0 0-30.35-32.62-30.35-32.62zm-366.28 96.12l-10.41 45.35 43.44-9.97-8.15-27.22c0 0-24.88-8.16-24.88-8.16zm323.62 2.1l-27.21 8.12-8.1 24.91 45.32 10.4c0 0-10-43.43-10.01-43.43zm-213.03 56.4l-25.62 5.41 13.62 44.44 32.66-30.35zm99.37 0.75l-19.5 17.5 34.07 31.69 13.09-42.62c0 0-27.66-6.57-27.66-6.57z"/>
	</g>
</svg>